<svg xmlns="http://www.w3.org/2000/svg" xmlns:xlink="http://www.w3.org/1999/xlink" width="575" height="150" viewBox="0 0 575 150">
  <defs>
    <clipPath id="clip-Logo-2-575X150_1">
      <rect width="575" height="150"/>
    </clipPath>
  </defs>
  <g id="Logo-2-575X150_1" data-name="Logo-2-575X150 – 1" clip-path="url(#clip-Logo-2-575X150_1)">
    <g id="Layer_x0020_1" transform="translate(-89.47 -279.322)">
      <g id="_1153953456" transform="translate(520.569 289.322)">
        <path id="Path_14" data-name="Path 14" d="M14658.378,6280.77a23.966,23.966,0,0,1,15.787,14.115,23.577,23.577,0,0,0-9.619-5.295c-12.92-3.563-26.369,4.337-30.039,17.645a25.357,25.357,0,0,0,.963,16.431,25.07,25.07,0,0,1-7.13-25.251C14632.01,6285.107,14645.458,6277.207,14658.378,6280.77Z" transform="translate(-14596.479 -6247.027)" fill="#0046bf" fill-rule="evenodd"/>
        <path id="Path_15" data-name="Path 15" d="M15056.67,6806.927a17.754,17.754,0,0,1,11.691,10.454,17.463,17.463,0,0,0-7.125-3.921c-9.566-2.64-19.527,3.212-22.244,13.065a18.774,18.774,0,0,0,.713,12.169,18.562,18.562,0,0,1-5.279-18.7C15037.143,6810.14,15047.1,6804.289,15056.67,6806.927Z" transform="translate(-14988.617 -6755.025)" fill="#0046bf" fill-rule="evenodd"/>
        <path id="Path_16" data-name="Path 16" d="M15439.346,7202.59a11.972,11.972,0,0,1,7.886,7.051,11.782,11.782,0,0,0-4.8-2.645,12.307,12.307,0,0,0-15,8.814,12.669,12.669,0,0,0,.48,8.208,12.525,12.525,0,0,1-3.562-12.614A12.308,12.308,0,0,1,15439.346,7202.59Z" transform="translate(-15365.135 -7137.071)" fill="#0046bf" fill-rule="evenodd"/>
        <ellipse id="Ellipse_3" data-name="Ellipse 3" cx="3.795" cy="3.795" rx="3.795" ry="3.795" transform="matrix(0.964, 0.266, -0.266, 0.964, 73.063, 78.41)" fill="#0046bf"/>
        <path id="Path_17" data-name="Path 17" d="M13830.381,5965.379a59.458,59.458,0,0,1-72.521-92.549l10.34,13.194a42.965,42.965,0,0,0,51.843,66.16Z" transform="translate(-13741.661 -5854.157)" fill="#e74e2f" fill-rule="evenodd"/>
        <path id="Path_18" data-name="Path 18" d="M14388.955,5338.09a59.448,59.448,0,0,1,45.76,97.4l5.039,29.48-22.32-28.456-3.268-4.157a42.987,42.987,0,1,0-53.26-67.392l-10.178-12.955A59.211,59.211,0,0,1,14388.955,5338.09Zm28.479,98.425-.072-.093,17.006-2.973-17.006,2.973Z" transform="translate(-14329.461 -5338.09)" fill="#e74e2f" fill-rule="evenodd"/>
        <path id="Path_19" data-name="Path 19" d="M14654.9,8883.309c22.084,0,39.988,1.564,39.988,3.494s-17.9,3.494-39.988,3.494-39.989-1.564-39.989-3.494S14632.813,8883.309,14654.9,8883.309Z" transform="translate(-14584.417 -8759.512)" fill="rgba(230,230,230,0.4)" fill-rule="evenodd"/>
      </g>
      <path id="Path_20" data-name="Path 20" d="M4119.8,6629.359a27.733,27.733,0,0,1,0,55.46,26.964,26.964,0,0,1-15.061-4.579v21.492a5.752,5.752,0,0,1-5.735,5.735h0a5.751,5.751,0,0,1-5.735-5.735v-36.918a5.721,5.721,0,0,1,.048-.741,28.14,28.14,0,0,1-.875-6.983A27.546,27.546,0,0,1,4119.8,6629.359Zm0,11.674a16.057,16.057,0,1,1-15.841,16.056A15.949,15.949,0,0,1,4119.8,6641.033Z" transform="translate(-3908.814 -6294.947)" fill="#0046bf" fill-rule="evenodd"/>
      <path id="Path_21" data-name="Path 21" d="M5901.239,6629.359a27.733,27.733,0,0,1,0,55.46,26.968,26.968,0,0,1-15.061-4.579v21.491a5.752,5.752,0,0,1-5.735,5.735h0a5.752,5.752,0,0,1-5.735-5.735v-36.918a5.809,5.809,0,0,1,.048-.741,28.14,28.14,0,0,1-.875-6.983A27.546,27.546,0,0,1,5901.239,6629.359Zm0,11.674a16.057,16.057,0,1,1-15.841,16.056A15.949,15.949,0,0,1,5901.239,6641.033Z" transform="translate(-5628.048 -6294.947)" fill="#0046bf" fill-rule="evenodd"/>
      <path id="Path_22" data-name="Path 22" d="M9391.859,6629.359a27.733,27.733,0,1,1-27.359,27.731A27.546,27.546,0,0,1,9391.859,6629.359Zm0,11.674a16.057,16.057,0,1,1-15.841,16.056A15.949,15.949,0,0,1,9391.859,6641.033Z" transform="translate(-8996.778 -6294.947)" fill="#0046bf" fill-rule="evenodd"/>
      <path id="Path_23" data-name="Path 23" d="M11174.569,6629.358a27.546,27.546,0,0,1,27.358,27.731c0,.167,0,.333-.006.5l0,0-.168,27.829c-4.83,40.277-59.716,24.425-46.6,7.337,1.118-1.458,35.79,18.912,34.9-12.812a26.973,26.973,0,0,1-15.493,4.875,27.733,27.733,0,0,1,0-55.46Zm0,11.675a16.057,16.057,0,1,1-15.842,16.056A15.949,15.949,0,0,1,11174.569,6641.033Z" transform="translate(-10717.237 -6294.946)" fill="#0046bf" fill-rule="evenodd"/>
      <ellipse id="Ellipse_4" data-name="Ellipse 4" cx="5.177" cy="5.176" rx="5.177" ry="5.176" transform="translate(496.928 317.381)" fill="#0046bf"/>
      <path id="Path_24" data-name="Path 24" d="M7877.775,6146.1h33.084a5.752,5.752,0,0,1,5.735,5.735h0a5.752,5.752,0,0,1-5.735,5.735h-38.82l-.146,0h0l-.146-.005h0l-.146-.01h0l-.145-.013h0l-.143-.017h0l-.142-.02h0l-.141-.024h0l-.14-.027h0l-.139-.03h0l-.138-.034-.136-.038-.135-.041-.134-.043h0l-.132-.047h0l-.131-.05-.129-.053h0l-.127-.056-.126-.059h0l-.125-.062-.123-.065h0l-.121-.067-.119-.07-.117-.074-.116-.076-.114-.078-.111-.082-.11-.083-.107-.087-.1-.089-.1-.092-.1-.094-.1-.1-.1-.1-.094-.1h0l-.092-.1-.089-.105-.086-.107-.084-.109-.082-.111h0l-.079-.113h0l-.076-.116-.074-.117-.07-.12-.068-.121-.065-.123-.062-.125-.059-.126-.056-.128-.053-.129-.05-.131-.047-.132-.044-.134-.041-.135-.037-.137-.034-.138h0l-.03-.139-.027-.14h0l-.023-.141h0l-.02-.142h0l-.017-.144h0l-.013-.144h0l-.009-.145h0l-.006-.146h0v-.147h0v-59.91a5.752,5.752,0,0,1,5.736-5.735h0a5.752,5.752,0,0,1,5.735,5.735Z" transform="translate(-7550.898 -5770.749)" fill="#0046bf" fill-rule="evenodd"/>
      <rect id="Rectangle_4" data-name="Rectangle 4" width="50.455" height="11.471" rx="5.736" transform="translate(496.965 387.088) rotate(-90)" fill="#0046bf"/>
      <path id="Path_25" data-name="Path 25" d="M2132.849,6124.953h21.242l-10.621-24.936Zm10.621-45.115a5.31,5.31,0,0,1,5.022,3.27l25.967,60.964a6.016,6.016,0,0,1-2.85,7.659h0a5.309,5.309,0,0,1-7.27-2.716l-5.477-12.86a5.688,5.688,0,0,1-1.731.269h-28.045a5.709,5.709,0,0,1-1.08-.1l-5.407,12.694a5.308,5.308,0,0,1-7.269,2.716h0a6.016,6.016,0,0,1-2.85-7.659l25.967-60.964A5.31,5.31,0,0,1,2143.47,6079.837Z" transform="translate(-1997.551 -5764.613)" fill="#0046bf" fill-rule="evenodd"/>
    </g>
  </g>
</svg>
