<svg xmlns="http://www.w3.org/2000/svg" width="407" height="80.083" viewBox="0 0 407 80.083">
  <g id="paradigam_logo-01" data-name="paradigam logo-01" transform="translate(-16.48 -30.917)">
    <path id="Path_1427" data-name="Path 1427" d="M249.37,109.25,233.7,100,216.86,82.88l-4.43,4.71L201,70.39l-5.32,6.51L169.45,54.24v5.65L155,44.06l-9.34,9-5.14-2.57a69.08,69.08,0,0,0-19.86-12.12,73.751,73.751,0,0,0-52.19-1.34c-26.16,8.77-37.58,28.2-42.56,43a89.8,89.8,0,0,0-4.61,29.22H16.48V111H256.84v-1.79ZM216.68,85.67l-3,23.5-13.58-8.51,11.52-11,.54.81Zm-155,13.57h0l.1-.08h0L77.58,87.1,69,109.25H48.53Zm24.72,1.81-14.86,6.4L80,85.76l10.14,6.06Zm1.38,1.35v-.05l15.9,6.9H71.92Zm.24-.6,4-10,3.41-8,12.19,25.44h-2.46Zm55.31-20-15.49,27-1,.47H109.22Zm-33.82-2.39L138.2,52.68,123,95.09Zm58.93,9.11-13,7,16.57-20.77L186.62,90l-18.2-1.5Zm-14,9.55,14.91-8-.42-.78,14,20H131Zm45,4.27,11,6.9H188.78Zm1.34-29h0l-1.31,26.88h-.06L185.88,109l2-18.41,7.37-11.66.59.52Zm-29.54-15.2L194,77.82l-21.92-4.36-1.48-9.69.66.71ZM154.89,46.62l.55.61,8.7,31.8-15.85-2.79-2.38-21h.05Zm-131,62.63H23.1a87.84,87.84,0,0,1,4.54-28.7C32.44,66.2,43.57,47.3,69,38.77a72,72,0,0,1,50.89,1.28,71.2,71.2,0,0,1,17.93,10.54l-29.3,27.35L94.33,82l-3.48,8.16-11.73-7-.29.76L60.88,97.64c-14.14,4.6-35.55,11.45-37,11.61Zm32.72-8.34-11,8.34H30.32c7.17-2.18,18.68-5.89,26.24-8.34Zm158.88,8.34,16.86-8.12.21.22.08.08,13.27,7.82Z" transform="translate(0 0)" fill="#fff"/>
    <text id="Paradigam" transform="translate(193.48 66.916)" fill="#fff" font-size="46" font-family="JosefinSans-Regular, Josefin Sans"><tspan x="0" y="0">Paradigam</tspan></text>
    <text id="by_FMA" data-name="by FMA" transform="translate(314.48 103.916)" fill="#fff" font-size="29.58" font-family="JosefinSans-Regular, Josefin Sans"><tspan x="0" y="0" letter-spacing="-0.01em">b</tspan><tspan y="0">y FMA</tspan></text>
  </g>
</svg>
